<svg width="72" height="41" viewBox="0 0 72 41" fill="none" xmlns="http://www.w3.org/2000/svg">
<path fill-rule="evenodd" clip-rule="evenodd" d="M38.795 14.3871C38.7894 14.3822 38.7859 14.379 38.7832 14.3766C38.7881 14.381 38.795 14.3871 38.795 14.3871ZM61.1162 12.3781C61.1271 12.3743 61.132 12.3725 61.1162 12.3781V12.3781ZM21.3639 2.70727L23.2382 2.53523C23.5931 2.5026 23.8319 2.24742 23.8319 1.90032V1.02974C23.8319 0.750324 23.648 0.48528 23.2382 0.522966L21.3639 0.694922C20.9541 0.73253 20.7706 1.0313 20.7706 1.31072V2.1813C20.7706 2.52847 21.009 2.73982 21.3639 2.70727ZM56.3854 10.1527C57.043 10.6643 57.8519 10.8814 58.7904 10.7953C60.0902 10.6761 61.0748 10.4577 61.8063 10.1287C62.0592 10.012 62.2048 9.79647 62.2048 9.53687V8.78843C62.2055 8.29898 61.8028 8.18445 61.5178 8.28298C60.8284 8.5143 59.9369 8.67771 58.7904 8.78284C58.477 8.81159 58.2086 8.72518 57.9922 8.52323C57.7751 8.32027 57.6645 8.06432 57.6645 7.75957V4.1387C57.6645 3.83535 57.7751 3.5578 57.9919 3.31638C58.2094 3.07488 58.4778 2.9389 58.7904 2.91023C59.9355 2.80517 60.8525 2.80509 61.5135 2.90914C61.8389 2.96205 62.2048 2.76383 62.2048 2.27827V1.5296C62.2048 1.28352 62.0748 1.09742 61.823 1.00907C61.0964 0.81404 60.1042 0.777287 58.7904 0.897881C57.8529 0.983898 57.0366 1.35602 56.3658 2.00281C55.7059 2.63648 55.3567 3.44933 55.3567 4.35044V7.97131C55.3567 8.88727 55.7024 9.62032 56.3854 10.1527ZM26.1573 13.7899L27.2781 13.6871C27.6329 13.6545 27.8718 13.399 27.8718 13.0521V6.85604C27.8718 6.56598 27.9847 6.28555 28.1998 6.03255C28.4159 5.79237 28.6843 5.65639 28.998 5.62757L30.505 5.48933C30.8069 5.46167 31.066 5.55157 31.2833 5.76611C31.5014 5.96891 31.611 6.22067 31.611 6.51299V12.709C31.611 13.0559 31.8505 13.2675 32.2055 13.235L33.3451 13.1304C33.4015 13.1252 33.4562 13.1072 33.5078 13.0795C33.8475 12.8958 33.9192 12.662 33.9192 12.4973V6.30117C33.9192 6.00994 34.032 5.72959 34.2476 5.4776C34.4637 5.23734 34.7321 5.10144 35.0455 5.07269L36.5521 4.93446C36.8569 4.90648 37.1182 4.99631 37.3503 5.20945C37.5685 5.41225 37.6784 5.66393 37.6784 5.95625V12.1523C37.6784 12.4992 37.9174 12.7109 38.2724 12.6783L39.3924 12.5756C39.7473 12.5429 39.9861 12.2875 39.9861 11.9406V5.74451C39.9861 4.82194 39.6384 4.09356 38.9578 3.58266C38.2993 3.06858 37.4893 2.85273 36.552 2.93874L35.0454 3.07697C34.1571 3.15849 33.3925 3.48219 32.7652 4.04064C32.1409 3.59704 31.382 3.41312 30.505 3.49362L28.998 3.63193C28.0691 3.71709 27.2548 4.08074 26.573 4.71907C25.9131 5.35304 25.564 6.16542 25.564 7.06786V13.264C25.5639 13.6109 25.8025 13.8225 26.1573 13.7899ZM38.8216 14.4101C38.9251 14.5088 39.0309 14.6389 39.1393 14.8004C39.2476 14.9621 39.3596 15.1307 39.4751 15.3063L43.5982 21.2811V14.903C43.5982 14.4886 43.686 14.1704 43.8617 13.9483C43.8664 13.9425 43.8715 13.9375 43.8762 13.9318L38.795 14.3871C38.8038 14.395 38.8131 14.402 38.8216 14.4101ZM22.8713 4.19411L21.7313 4.29877C21.3214 4.33638 21.1376 4.63616 21.1376 4.91589V13.6702C21.1376 14.017 21.3764 14.2287 21.7313 14.1961L22.8713 14.0916C23.2258 14.059 23.4646 13.8035 23.4646 13.4566V4.70228C23.4646 4.42263 23.2812 4.15642 22.8713 4.19411ZM41.1373 3.26214C41.2706 3.18817 41.3807 3.08739 41.4695 2.97301L43.7364 5.33952L42.3844 5.80302C42.3413 5.67015 42.2637 5.55048 42.1494 5.46136C41.8149 5.20043 41.3123 5.28358 41.0241 5.64777C40.7368 6.01188 40.7736 6.51858 41.1077 6.77966C41.4412 7.04036 41.9454 6.95613 42.232 6.59232C42.3112 6.49263 42.3636 6.38245 42.3936 6.26838L43.7502 6.90849C43.75 6.93577 43.7461 6.96242 43.7461 6.98962C43.7461 9.93167 46.1005 12.1008 49.0047 11.8343C51.9092 11.5678 54.2638 8.96653 54.2638 6.02447C54.2638 3.08241 51.9091 0.913499 49.0047 1.18002C47.9162 1.27995 46.9047 1.70793 46.0659 2.35916L44.9202 1.55494C45.0047 1.4209 45.0594 1.26681 45.0674 1.10208C45.0898 0.62631 44.7286 0.255746 44.2596 0.274783C43.792 0.295608 43.3938 0.698651 43.3709 1.17543C43.3489 1.65113 43.71 2.02169 44.1783 2.00095C44.3062 1.99598 44.428 1.95992 44.5396 1.90351L44.79 3.49704L41.6921 2.43173C41.7126 2.2569 41.6898 2.07865 41.6133 1.9168C41.3899 1.4446 40.8144 1.28142 40.3279 1.55183C39.8417 1.82223 39.6286 2.42521 39.8523 2.89733C40.0751 3.36953 40.652 3.53332 41.1373 3.26214ZM50.1721 8.32276C50.5577 8.28741 50.8691 8.57638 50.8691 8.96521C50.8691 9.35566 50.5577 9.70066 50.1721 9.73609C49.7864 9.77145 49.4749 9.48356 49.4749 9.09318C49.475 8.70428 49.7864 8.35819 50.1721 8.32276ZM47.7467 8.54538C48.1326 8.50995 48.4445 8.79884 48.4445 9.18767C48.4445 9.57805 48.1327 9.92312 47.7467 9.95856C47.3611 9.99399 47.0497 9.70602 47.0497 9.31572C47.0497 8.92682 47.3611 8.58066 47.7467 8.54538ZM53.0838 13.1044C53.0659 13.1037 53.058 13.1034 53.0555 13.1033C53.0594 13.1035 53.0723 13.104 53.0838 13.1044ZM51.4905 14.9011L50.0752 15.0194V22.2974L51.6999 22.1615C52.056 22.1316 52.3353 22.0985 52.5375 22.0621C52.7396 22.0257 52.9491 21.9594 53.1657 21.8632C53.3823 21.7672 53.57 21.6418 53.729 21.487C54.4462 20.8125 54.8048 19.7245 54.8048 18.2225C54.8048 17.1645 54.647 16.3852 54.3319 15.8849C54.0165 15.3847 53.6278 15.082 53.1657 14.9768C52.7037 14.8716 52.1451 14.8463 51.4905 14.9011ZM28.5717 21.6311L31.7344 21.3665L30.1385 17.0748L28.5717 21.6311ZM66.5506 14.2655C66.4477 14.2655 66.444 14.3397 66.444 14.3397C66.4441 14.3488 66.4449 14.3579 66.4449 14.3671C66.4449 14.6256 66.3546 14.8659 66.174 15.0883C65.9935 15.3107 65.7685 15.4331 65.4989 15.4556C65.2534 15.4761 65.0668 15.4296 64.9393 15.3158C64.8117 15.2022 64.6732 15.0102 64.5241 14.7398C64.3314 14.3513 64.1004 14.0549 63.8308 13.8506C63.5612 13.6465 63.128 13.5692 62.5311 13.6192C61.9774 13.6656 61.531 13.8261 61.1916 14.1006C60.8522 14.3753 60.6825 14.6857 60.6825 15.0319C60.6825 15.2465 60.7403 15.427 60.8559 15.5734C60.9714 15.7198 61.1302 15.8406 61.3324 15.9358C61.5347 16.0312 61.7392 16.1018 61.9462 16.1478C62.1531 16.1939 62.495 16.258 62.9716 16.34C63.5684 16.4316 64.1089 16.5423 64.5927 16.6725C65.0765 16.8028 65.488 16.9756 65.8274 17.191C66.1668 17.4064 66.4314 17.6927 66.6216 18.0498C66.6323 18.0699 66.6415 18.0912 66.6517 18.1118V14.3398C66.6517 14.3397 66.6383 14.2655 66.5506 14.2655ZM48.756 13.4612C48.7132 13.4748 48.6716 13.4893 48.6323 13.5055L48.756 13.4943V13.4612ZM53.1014 13.1049C53.0963 13.1047 53.0938 13.1047 53.0896 13.1045C53.0961 13.1047 53.1014 13.1049 53.1014 13.1049ZM64.9646 22.522C64.3291 22.8678 63.5757 23.0771 62.7045 23.1499C61.6599 23.2373 60.7982 23.1094 60.1194 22.7664C59.6381 22.5189 59.2468 22.1677 58.946 21.7125C58.6451 21.2573 58.4947 20.803 58.4947 20.3495C58.4947 20.0861 58.585 19.8531 58.7654 19.6503C58.9459 19.4475 59.1758 19.3343 59.455 19.3109C59.6813 19.292 59.8726 19.3492 60.029 19.4823C60.1854 19.6156 60.319 19.8214 60.4299 20.0998C60.5644 20.4299 60.7102 20.703 60.8666 20.9191C61.023 21.1353 61.2432 21.3058 61.5273 21.4307C61.8112 21.5557 62.1844 21.5988 62.6466 21.5602C63.282 21.507 63.7983 21.3139 64.1954 20.9808C64.5927 20.6476 64.7911 20.2569 64.7911 19.8081C64.7911 19.4523 64.684 19.1724 64.4699 18.9683C64.2556 18.7644 63.9789 18.6181 63.6394 18.5295C63.3 18.4408 62.8463 18.3544 62.2784 18.2703C61.5176 18.1536 60.8811 17.9958 60.3684 17.7974C59.8557 17.5988 59.4489 17.3037 59.1481 16.9119C58.8471 16.5202 58.6967 16.0148 58.6967 15.3954C58.6967 14.8054 58.8555 14.2679 59.1734 13.783C59.491 13.2981 59.9507 12.9073 60.5525 12.6107C60.721 12.5276 60.8989 12.4545 61.0841 12.3894L53.1012 13.1049C53.3935 13.1145 53.6634 13.1406 53.9094 13.1846C54.4293 13.2777 54.901 13.4943 55.3246 13.8343C56.4269 14.6979 56.9781 16.1049 56.9781 18.0553C56.9781 18.6989 56.9227 19.2913 56.8121 19.8319C56.7013 20.3727 56.5305 20.8661 56.2995 21.3121C56.0683 21.7581 55.7723 22.1645 55.4112 22.5311C55.1271 22.8135 54.8166 23.0466 54.4798 23.2308C54.1427 23.4151 53.7805 23.5551 53.3929 23.6508C53.0054 23.7466 52.5686 23.8148 52.0824 23.8555L49.2879 24.0893C48.898 24.122 48.6043 24.0868 48.407 23.9838C48.2096 23.8809 48.0808 23.7234 48.0206 23.5115C47.9604 23.2996 47.9304 23.0205 47.9304 22.6742V14.8112C47.9304 14.343 48.0339 13.9955 48.2409 13.7686C48.3412 13.6586 48.472 13.5713 48.6321 13.5055L45.2794 13.8061C45.2868 13.8135 45.2949 13.8201 45.3022 13.8278C45.4801 14.0203 45.5692 14.3237 45.5692 14.738V23.1716C45.5692 24.1127 45.1841 24.6155 44.4139 24.6799C44.2214 24.696 44.0481 24.6824 43.8941 24.6393C43.7399 24.596 43.5955 24.5192 43.4608 24.4085C43.3259 24.298 43.2009 24.1659 43.0854 24.012C42.9698 23.8583 42.8543 23.7011 42.7388 23.54L38.7168 17.6299V23.913C38.7168 24.3226 38.6229 24.6402 38.4352 24.8654C38.2475 25.0908 38.0066 25.2159 37.7131 25.2404C37.4098 25.2658 37.1666 25.18 36.9838 24.9831C36.8008 24.7863 36.7094 24.4857 36.7094 24.0809V15.8082C36.7094 15.4572 36.7479 15.1785 36.8249 14.972C36.8905 14.809 36.9878 14.6645 37.1155 14.5377L31.1742 15.0702C31.2535 15.1366 31.3235 15.2116 31.3841 15.2955C31.5069 15.4657 31.6103 15.6509 31.6945 15.851C31.7787 16.0513 31.8859 16.319 32.0158 16.6544L34.7815 23.3424C34.9982 23.8509 35.1065 24.2246 35.1065 24.4636C35.1065 24.7123 35.0041 24.9488 34.7996 25.1732C34.595 25.3975 34.3483 25.5218 34.0594 25.5459C33.8909 25.5601 33.7465 25.5416 33.6263 25.4908C33.5058 25.4398 33.4048 25.3656 33.323 25.2675C33.241 25.1695 33.1532 25.0159 33.0594 24.8067C32.9655 24.5977 32.8848 24.413 32.8174 24.2527L32.312 22.9493L28.0085 23.3092L27.5029 24.7267C27.3055 25.2796 27.137 25.6557 26.9975 25.855C26.8578 26.0543 26.6292 26.1675 26.3115 26.194C26.0418 26.2165 25.8036 26.1365 25.5966 25.9539C25.3896 25.7713 25.2862 25.5532 25.2862 25.2996C25.2862 25.1533 25.3102 25.0002 25.3583 24.84C25.4064 24.68 25.4859 24.4563 25.5966 24.1692L28.3045 16.9793C28.3814 16.773 28.4741 16.5251 28.5824 16.2356C28.6908 15.9462 28.8062 15.7037 28.929 15.5081C28.9868 15.416 29.0535 15.3314 29.1283 15.2535L22.1816 15.8762C22.2405 15.8937 22.2984 15.9125 22.3545 15.9337C22.6866 16.0474 22.9802 16.2251 23.2354 16.4671C23.4905 16.7091 23.6842 16.999 23.8167 17.3364C23.949 17.674 24.0153 18.0378 24.0153 18.4279C24.0153 19.2276 23.7925 19.8851 23.3473 20.4002C22.9019 20.9154 22.2269 21.3107 21.3219 21.5864C21.7021 21.7593 22.0657 22.0314 22.4123 22.4021C22.7589 22.773 23.0681 23.1726 23.3401 23.6008C23.612 24.0293 23.8239 24.4187 23.9756 24.7692C24.1273 25.1199 24.203 25.3635 24.203 25.4999C24.203 25.6414 24.1584 25.7853 24.0694 25.9317C23.9802 26.0781 23.8587 26.198 23.7048 26.2913C23.5506 26.3847 23.3726 26.4398 23.1704 26.4568C22.9297 26.4769 22.7274 26.4364 22.5639 26.3356C22.4001 26.2347 22.2594 26.1013 22.1415 25.9357C22.0234 25.77 21.8634 25.525 21.6612 25.2006L20.802 23.8241C20.4939 23.3184 20.2183 22.9368 19.9752 22.6792C19.7321 22.4215 19.4853 22.2521 19.2351 22.1705C18.9848 22.089 18.6693 22.0642 18.2892 22.096L17.5382 22.1589V25.604C17.5382 26.0575 17.4395 26.3998 17.2422 26.6308C17.0447 26.8619 16.7873 26.9907 16.4695 27.0173C16.1277 27.0459 15.863 26.9559 15.6752 26.7472C15.4875 26.5388 15.3937 26.2175 15.3937 25.7834V17.5328C15.3937 17.0646 15.4971 16.7171 15.7041 16.4901C15.7158 16.4773 15.7295 16.4658 15.742 16.4535L11.5039 16.8334C11.6056 16.8706 11.7038 16.9133 11.7977 16.9631C12.0479 17.0934 12.2694 17.2663 12.462 17.4817C12.6545 17.6974 12.8013 17.9411 12.9024 18.2129C13.0036 18.4849 13.0541 18.777 13.0541 19.0889C13.0541 20.1618 12.5245 20.9911 11.4656 21.5771C12.8567 21.9093 13.5524 22.724 13.5524 24.021C13.5524 24.6208 13.4007 25.1736 13.0974 25.6792C12.7941 26.185 12.385 26.574 11.87 26.8461C11.5474 27.0097 11.1767 27.1371 10.7579 27.2281C10.3391 27.3193 9.85045 27.3881 9.29205 27.4348L6.05708 27.7054C5.59005 27.7445 5.2567 27.6663 5.05702 27.4708C5.03778 27.452 5.01969 27.4315 5.00229 27.4101V27.8348C5.00229 27.8348 5.04231 27.913 5.12018 27.9337C7.77329 28.6382 54.3206 41 54.3206 41L66.6517 21.3137V20.71C66.5847 20.8731 66.506 21.0322 66.4124 21.1867C66.0826 21.7314 65.6 22.1763 64.9646 22.522ZM66.6688 20.6686C66.6645 20.6792 66.6596 20.6909 66.6543 20.704C66.6573 20.6968 66.6626 20.6835 66.6688 20.6686ZM70.7801 0.662286C70.1213 0.148283 69.3118 -0.0675747 68.3743 0.0183645C67.2004 0.12606 66.3159 0.281932 65.7314 0.487145C65.3143 0.648533 65.2694 0.964239 65.2694 1.09214V1.87491C65.2694 2.02675 65.3091 2.15192 65.3863 2.24688C65.4853 2.36708 65.6331 2.42443 65.8031 2.40881C65.8313 2.40625 65.8996 2.39405 65.9272 2.38565C66.38 2.24579 67.2034 2.12154 68.3744 2.01408C68.6762 1.98642 68.9357 2.0764 69.153 2.29086C69.3715 2.49358 69.4811 2.74534 69.4811 3.03766V3.55539L66.8677 3.79518C65.9285 3.88135 65.1132 4.25231 64.4424 4.89902C63.7733 5.54334 63.4337 6.32743 63.4337 7.23003C63.4337 8.14459 63.7796 8.87833 64.4621 9.41153C65.1203 9.92305 65.9294 10.1401 66.8677 10.0541L71.2147 9.65521C71.5529 9.6242 71.7892 9.3632 71.7892 9.02201V2.82584C71.7892 1.92472 71.44 1.17606 70.7801 0.662286ZM69.4811 7.80169L66.8677 8.04148C66.5542 8.07023 66.2861 7.98374 66.0698 7.78179C65.8518 7.57891 65.7414 7.32304 65.7414 7.01821C65.7414 6.72566 65.8518 6.45362 66.0698 6.21236C66.2861 5.9721 66.5542 5.83612 66.8677 5.80737L69.4811 5.5675V7.80169ZM17.5382 20.6009L19.4589 20.4404C19.974 20.3973 20.4073 20.316 20.7587 20.1963C21.1101 20.0767 21.3785 19.9007 21.5638 19.6681C21.7491 19.4357 21.8418 19.1292 21.8418 18.7488C21.8418 18.4515 21.767 18.1955 21.6179 17.9812C21.4687 17.767 21.2617 17.6149 20.9969 17.5249C20.7466 17.4386 20.2532 17.4261 19.5166 17.4877L17.5381 17.6531V20.6009H17.5382ZM10.8156 22.9114C10.4402 22.6991 9.87927 22.624 9.13323 22.6864L6.902 22.8731V26.0035L9.20543 25.8109C10.6544 25.6897 11.3789 25.1001 11.3789 24.0419C11.3789 23.5007 11.1911 23.1239 10.8156 22.9114ZM11.2779 15.1554L12.3987 15.0525C12.7535 15.02 12.9917 14.7645 12.9917 14.4176V8.22151C12.9917 7.93153 13.1044 7.6511 13.32 7.39787C13.5362 7.15776 13.8045 7.02178 14.1179 6.99303L15.6253 6.85472C15.9271 6.82706 16.1859 6.91712 16.4035 7.1315C16.6215 7.33431 16.7315 7.58598 16.7315 7.8783V14.0744C16.7315 14.4213 16.9703 14.6329 17.3252 14.6004L18.4657 14.4957C18.8035 14.4648 19.0398 14.2037 19.0398 13.8626V7.66648C19.0398 6.744 18.6918 6.01569 18.0114 5.50472C17.3529 4.99064 16.5503 4.77416 15.6253 4.85901L14.1179 4.99732C13.1897 5.08256 12.375 5.44621 11.6933 6.08454C11.0333 6.71851 10.6842 7.53089 10.6842 8.43333V14.6294C10.6843 14.9762 10.923 15.1879 11.2779 15.1554ZM11.5039 16.8334C11.4994 16.8317 11.497 16.8309 11.4935 16.8296C11.4993 16.8317 11.5039 16.8334 11.5039 16.8334ZM6.90193 21.315L8.86602 21.1509C9.40036 21.1062 9.81304 21.0204 10.1044 20.8936C10.3956 20.7668 10.6183 20.5532 10.7723 20.2526C10.8926 20.0377 10.9528 19.8035 10.9528 19.5499C10.9528 19.0087 10.7626 18.6651 10.3824 18.5188C10.0021 18.3726 9.42205 18.3321 8.64221 18.3973L6.902 18.5428V21.315H6.90193ZM8.56709 14.8237V8.62759C8.56709 7.72647 8.2181 6.9778 7.55775 6.46403C6.89886 5.95003 6.08897 5.73417 5.15199 5.82011C3.97801 5.92781 3.09354 6.08368 2.50854 6.28889C2.09171 6.45036 2.04695 6.76599 2.04695 6.89389V7.67666C2.04695 7.82849 2.08666 7.95367 2.16346 8.04863C2.26249 8.16883 2.41066 8.22618 2.58067 8.21056C2.60865 8.20799 2.67702 8.19579 2.70438 8.1874C3.15793 8.04746 3.98092 7.92329 5.15199 7.81583C5.45338 7.78817 5.71323 7.87815 5.93099 8.0926C6.14868 8.29541 6.2586 8.54709 6.2586 8.83941V9.35722L3.64542 9.59693C2.70661 9.6831 1.89089 10.0541 1.22043 10.7006C0.550576 11.3451 0.210938 12.1292 0.210938 13.0317C0.210938 13.9463 0.557169 14.6807 1.23997 15.2131C1.89779 15.7247 2.70699 15.9417 3.64542 15.8556L7.99236 15.4568C8.33085 15.4258 8.56709 15.1648 8.56709 14.8237ZM6.25852 13.6034L3.64535 13.8432C3.33192 13.872 3.06326 13.7856 2.84749 13.5835C2.62904 13.3807 2.51912 13.1247 2.51912 12.82C2.51912 12.5274 2.62904 12.2554 2.84749 12.0141C3.06326 11.7739 3.33192 11.6379 3.64535 11.6091L6.25852 11.3693V13.6034Z" fill="#C6C6C6"/>
</svg>
