<svg width="160" height="41" viewBox="0 0 160 41" fill="none" xmlns="http://www.w3.org/2000/svg">
<path d="M40.4453 36.5C49.2818 36.5 56.4452 29.3366 56.4452 20.5C56.4452 11.6635 49.2818 4.5 40.4453 4.5C31.6087 4.5 24.4453 11.6635 24.4453 20.5C24.4453 29.3366 31.6087 36.5 40.4453 36.5Z" fill="#262626"/>
<path d="M111.023 16.4744C113.956 16.4744 117.287 17.6014 117.486 21.2074H113.387C113.301 20.165 112.333 19.6861 111.052 19.6861C109.856 19.6861 109.315 20.1369 109.315 20.6721C109.315 21.1229 109.657 21.5455 110.739 21.7427L113.33 22.1653C115.92 22.6442 117.629 23.8838 117.629 26.3067C117.629 29.4619 114.753 30.9269 111.166 30.9269C107.55 30.9269 104.617 29.4338 104.333 25.7996L108.432 25.8277C108.631 27.011 109.628 27.5463 111.08 27.5463C112.304 27.5463 113.045 27.18 113.045 26.5884C113.045 26.1376 112.618 25.7714 111.707 25.6305L108.916 25.1516C106.525 24.7572 104.873 23.433 104.873 21.0384C104.873 18.1648 107.35 16.4744 111.023 16.4744ZM93.7404 16.5276C95.2468 16.5276 96.4971 16.9216 97.521 17.5688V16.8372H102.125V30.4861H97.521V29.7263C96.4971 30.3735 95.2468 30.7676 93.7404 30.7676C90.017 30.7676 86.8905 27.7001 86.8905 23.6476C86.8905 19.5669 90.017 16.5276 93.7404 16.5276ZM66.7703 11.3204L73.6746 21.56L80.5502 11.3204H84.145V30.5019H79.3235V20.883L75.0155 27.4554V27.4836H72.3337V27.4554L67.9971 20.8266L68.0257 30.5019H63.2041V11.3204H66.7703ZM124.778 10.5234V21.9759L129.596 16.8546H135.099L129.853 22.4261L135.555 30.5019H130.024L126.716 25.7746L124.778 27.8287V30.5019H120.159V10.5234H124.778ZM94.6497 20.2424C92.774 20.2424 91.4097 21.7621 91.4097 23.6476C91.4097 25.5331 92.774 27.0246 94.6497 27.0246C95.6729 27.0246 96.668 26.7432 97.521 25.7582V21.5369C96.668 20.5519 95.6729 20.2424 94.6497 20.2424Z" fill="#C6C6C6"/>
<path fill-rule="evenodd" clip-rule="evenodd" d="M50.102 16.5672V21.8806H33.9061L33.2094 21.8807C33.9468 25.1046 36.8738 27.5128 40.3722 27.5128C43.2645 27.5128 45.7661 25.8668 46.9629 23.4747H50.102V27.9378C50.102 28.9943 49.2318 29.8507 48.1585 29.8507H32.6105C31.5371 29.8507 30.667 28.9943 30.667 27.9378V16.5672H50.102ZM45.0989 23.4747C44.0682 24.9578 42.3357 25.9311 40.3722 25.9311C38.4087 25.9311 36.6762 24.9578 35.6455 23.4747H45.0989ZM36.2276 17.8424C34.7045 17.8424 33.4445 18.9508 33.235 20.3928H34.8916C35.0738 19.8378 35.603 19.4364 36.2276 19.4364C36.8521 19.4364 37.3814 19.8378 37.5635 20.3928H39.2202C39.0106 18.9508 37.7506 17.8424 36.2276 17.8424ZM44.5414 17.8424C43.0183 17.8424 41.7583 18.9508 41.5488 20.3928H43.2055C43.3876 19.8378 43.9169 19.4364 44.5414 19.4364C45.1659 19.4364 45.6952 19.8378 45.8773 20.3928H47.534C47.3244 18.9508 46.0645 17.8424 44.5414 17.8424ZM48.1585 10.7224C49.2318 10.7224 50.102 11.5788 50.102 12.6352V14.9731H30.667V12.6352C30.667 11.5788 31.5371 10.7224 32.6105 10.7224H48.1585Z" fill="#C6C6C6"/>
</svg>
