<svg width="88" height="41" viewBox="0 0 88 41" fill="none" xmlns="http://www.w3.org/2000/svg">
<path d="M24.7622 18.7352H21.9287V0.452759L28.6868 0.452759C31.8137 0.452759 34.4454 2.99889 34.4454 6.13329V6.14248C34.4454 9.27688 31.8137 11.823 28.6868 11.823H24.7622V18.7352ZM24.7622 8.99194H28.6868C30.2457 8.99194 31.3002 7.71428 31.3002 6.15167V6.14248C31.3002 4.57988 30.2457 3.30222 28.6868 3.30222H24.7622V8.99194Z" fill="#C6C6C6"/>
<path d="M46.7047 3.29302V0.452759L37.1406 0.452759V18.7352H46.7047V15.895H39.9741V10.7016H46.2829V7.86135H39.9741V3.29302H46.7047Z" fill="#C6C6C6"/>
<path d="M56.0395 22.7335H53.2061V41.016H56.0395V22.7335Z" fill="#C6C6C6"/>
<path d="M87.3725 41.016H77.5059V22.7335H80.3393V38.1757H87.3725V41.016Z" fill="#C6C6C6"/>
<path d="M64.7697 0.452759H61.9363V13.7625L52.2988 0.452759H49.4287V18.7352H52.2622V5.59097L61.9088 18.7352H64.7697V0.452759Z" fill="#C6C6C6"/>
<path d="M71.8392 41.016H75.1862L68.6023 22.7335H64.8427L58.2588 41.016H61.6058L62.8804 37.3117H70.5646L71.8392 41.016ZM63.8615 34.4714L66.7225 25.8403L69.5835 34.4714H63.8615Z" fill="#C6C6C6"/>
<path d="M45.9442 25.2154C47.9983 25.39 48.9978 26.061 50.0615 27.0813V23.3954C48.7777 22.752 47.6131 22.3108 45.8892 22.2556C43.2025 22.1729 40.7266 23.23 38.9569 25.004C37.1871 26.778 36.2793 29.1311 36.2793 31.6313C36.2793 34.1314 37.1871 36.4845 38.9569 38.2585C40.7266 40.0326 43.2025 41.0896 45.8892 41.0069C47.6131 40.9517 48.7777 40.5105 50.0615 39.8671V36.1812C48.9978 37.2015 48.0074 37.8633 45.9442 38.0471C42.3589 38.3596 39.2962 35.2436 39.2962 31.6404C39.2962 28.0189 42.3589 24.9121 45.9442 25.2154Z" fill="#C6C6C6"/>
<path d="M12.3091 32.1644C11.4013 31.135 10.1267 30.4272 8.21935 29.8665C6.9631 29.4988 5.75269 29.0576 5.33088 28.5521C5.12914 28.3039 4.86322 27.9546 4.95492 27.2192C5.01911 26.7045 5.24835 26.2357 5.63348 25.8589C6.05529 25.4452 6.7797 25.1787 7.43992 25.0868C9.4481 24.811 11.4379 25.9232 11.8506 26.3644L13.171 23.7815C12.2999 23.3127 9.68652 22.0351 7.06396 22.2833C5.78937 22.4027 4.39556 23.0002 3.5336 23.8459C2.69915 24.6639 2.2315 25.7578 2.02976 26.8792C1.78218 28.2671 2.15814 29.3977 2.94674 30.3536C3.75368 31.3188 5.58763 31.999 7.43075 32.5689C10.1633 33.4237 10.3284 34.8944 10.2917 35.4919C10.1817 37.128 8.88875 38.0748 7.68751 38.1023C4.87239 38.1483 2.38738 36.503 2.09395 36.0893L0.654297 38.7917C1.68131 39.4811 4.23051 41.1448 7.77004 40.9886C9.15467 40.9242 10.5668 40.4922 11.6305 39.573C12.7951 38.5711 13.4461 37.1556 13.5195 35.6573C13.5745 34.3705 13.1527 33.1204 12.3091 32.1644Z" fill="#C6C6C6"/>
<path d="M8.27501 3.04479C8.8252 2.89772 9.39372 2.815 9.98976 2.815C13.5843 2.815 16.5186 5.74718 16.5186 9.35956C16.5186 10.8854 15.996 12.3009 15.1065 13.4131L16.7295 15.8673C18.4168 14.1117 19.3521 11.8046 19.3521 9.35956C19.3521 6.85019 18.3801 4.4971 16.6103 2.72308C14.8406 0.949062 12.4931 -0.0252686 9.98976 -0.0252686C8.83437 -0.0252686 7.70649 0.186143 6.66113 0.58139L8.27501 3.04479Z" fill="#C6C6C6"/>
<path d="M11.6949 15.6743C11.1538 15.8214 10.5762 15.9041 9.98929 15.9041C6.39474 15.9041 3.46041 12.9719 3.46041 9.35956C3.46041 7.83372 3.98309 6.42738 4.86339 5.31517L3.24034 2.86096C1.5531 4.6074 0.626953 6.91454 0.626953 9.35956C0.626953 11.8689 1.59895 14.222 3.36871 15.996C5.13848 17.7701 7.48594 18.7444 9.98929 18.7444C11.1447 18.7444 12.2634 18.533 13.3179 18.1377L11.6949 15.6743Z" fill="#C6C6C6"/>
<path d="M22.9557 25.3257C23.5059 25.1786 24.0744 25.0959 24.6704 25.0959C28.265 25.0959 31.1993 28.0281 31.1993 31.6404C31.1993 33.1663 30.6766 34.5818 29.7872 35.694L31.4102 38.1482C33.0974 36.3926 34.0328 34.0855 34.0328 31.6404C34.0328 29.1311 33.0608 26.778 31.291 25.004C29.5212 23.2299 27.1738 22.2556 24.6704 22.2556C23.515 22.2556 22.3872 22.467 21.3418 22.8715L22.9557 25.3257Z" fill="#C6C6C6"/>
<path d="M26.3755 37.9459C25.8345 38.093 25.2568 38.1757 24.67 38.1757C21.0754 38.1757 18.1411 35.2435 18.1411 31.6312C18.1411 30.1053 18.6638 28.699 19.544 27.5868L17.921 25.1326C16.2338 26.8882 15.3076 29.1953 15.3076 31.6404C15.3076 34.1497 16.2796 36.5028 18.0494 38.2768C19.8191 40.0509 22.1666 41.0252 24.67 41.0252C25.8253 41.0252 26.9441 40.8138 27.9986 40.4185L26.3755 37.9459Z" fill="#C6C6C6"/>
</svg>
