<svg xmlns="http://www.w3.org/2000/svg" width="111" height="32" viewBox="0 0 111 32" fill="none">
<path d="M30.7 6.39805C30.8537 5.22503 30.628 4.24657 30.0301 3.48946C27.8332 0.707762 22.6058 0 18.0511 0C14.5865 0 11.511 0.408866 10.4534 0.627398C9.00943 0.924884 4.31936 2.07535 4.5619 4.41858C4.74522 6.1908 7.60636 7.4893 10.1869 8.15618C11.8945 8.63977 11.8015 10.5459 10.3561 11.7782C10.349 11.7838 10.3434 11.7894 10.3364 11.7951C10.3335 11.7965 10.3321 11.7993 10.3293 11.8021C6.36686 15.2874 1.00839 21.2582 0.44716 25.5471C0.293457 26.7201 0.519077 27.6986 1.11697 28.4557C4.98494 33.3536 18.2429 31.8225 20.6937 31.3177C22.1377 31.0203 26.8278 29.8698 26.5852 27.5266C26.4625 26.3465 25.1539 25.3779 23.5323 24.6645C20.4949 22.9642 22.039 19.6792 23.8327 17.2556C27.0788 13.8845 30.2727 9.65629 30.7 6.39805Z" fill="white"/>
<path d="M53.8586 2.74208C52.6361 1.51549 49.4647 0.503189 45.9662 0.219803C42.0009 -0.100241 38.5969 0.563815 36.6312 2.04137C31.2487 6.08774 25.4616 21.7558 28.1605 27.9889C28.6245 29.0604 29.541 29.9416 30.8849 30.6056C32.1061 31.209 33.6487 31.625 35.472 31.8393C38.6857 32.2171 42.6256 31.9168 45.7532 31.0554C50.1796 29.8358 52.3004 28.1538 52.0593 26.0573C51.6856 22.8188 47.2875 22.5467 43.6099 22.5312C41.4777 22.4748 41.8402 20.212 43.7156 19.7664V19.765C48.4071 18.8021 50.8537 17.1892 50.9961 14.9559C51.0948 13.4093 49.7552 12.4252 46.9067 11.9557C44.6125 11.5581 45.4176 9.3347 47.5244 8.9357C48.6623 8.70589 49.9766 8.35624 51.35 7.79793C52.7785 7.21565 54.3381 6.04685 54.6018 4.74694C54.7414 4.05046 54.4918 3.37653 53.8586 2.74208Z" fill="white"/>
<path d="M79.6633 2.74208C78.4407 1.51549 75.2694 0.503189 71.7709 0.219803C67.8056 -0.100241 64.4016 0.563815 62.4358 2.04137C57.0534 6.08774 51.2662 21.7558 53.9652 27.9889C54.4292 29.0604 55.3457 29.9416 56.6896 30.6056C57.9108 31.209 59.4534 31.625 61.2767 31.8393C64.4904 32.2171 68.4303 31.9168 71.5579 31.0554C75.9843 29.8358 78.1051 28.1538 77.864 26.0573C77.5002 22.9048 73.322 22.5636 69.7093 22.5326C67.9367 22.5326 67.03 20.6067 69.8982 19.6861C74.3443 18.7147 76.6626 17.1285 76.8008 14.9559C76.9037 13.3303 75.4203 12.3265 72.2658 11.8866C72.201 11.8781 72.1361 11.8697 72.0712 11.8612V11.8598C70.2987 11.4721 71.6425 9.31919 73.8423 8.82432C74.8548 8.59733 75.9829 8.27306 77.1533 7.79652C78.5818 7.21424 80.1414 6.04544 80.405 4.74553C80.5461 4.05046 80.2965 3.37653 79.6633 2.74208Z" fill="white"/>
<path d="M103.338 20.4152C103.039 20.129 102.746 19.8611 102.465 19.6074C101.661 18.87 101.622 18.0593 101.639 17.5405C101.664 16.7439 102.502 15.7288 103.217 15.0506C104.12 14.2498 105.148 13.2742 106.143 12.1744C109.802 8.12244 111.357 3.03558 109.54 1.06456C107.74 -0.886717 104.18 0.218631 98.9453 4.34536C97.5013 5.52402 95.1366 5.31113 95.0999 4.0084C95.0999 3.02712 94.9236 1.6835 94.086 0.853079C93.5756 0.346931 92.8677 0.090332 91.9835 0.090332C91.9708 0.090332 91.9581 0.090332 91.9455 0.090332C88.2255 0.121349 85.6789 2.67606 82.5526 9.51681C79.2402 16.7636 79.2402 21.8899 79.2402 24.9522C79.2402 27.8932 79.7874 29.9192 80.8675 30.9767C81.4725 31.5688 82.2607 31.8606 83.2126 31.8395C84.3237 31.8169 86.0258 31.26 87.9901 28.8421C88.7896 27.8058 90.1757 26.9683 90.9302 26.8795C91.6846 26.7907 93.3937 27.2799 95.3467 28.3726C98.5406 30.3464 101.4 31.5378 103.618 31.8141C104.882 31.972 105.947 31.7013 106.701 31.033C107.345 30.462 107.715 29.6288 107.712 28.749C107.698 25.4626 104.957 21.9647 103.338 20.4152Z" fill="white"/>
</svg>
